<mxfile host="app.diagrams.net" modified="2021-12-17T17:07:17.057Z" agent="5.0 (Macintosh; Intel Mac OS X 10_15_7) AppleWebKit/537.36 (KHTML, like Gecko) Chrome/96.0.4664.110 Safari/537.36" etag="aOGqjNK1Pr9ygWd1vK4z" version="15.9.6" type="github">
  <diagram id="cMuhH3UEP507mqpo3FYh" name="Page-1">
    <mxGraphModel dx="1003" dy="1154" grid="1" gridSize="10" guides="1" tooltips="1" connect="1" arrows="1" fold="1" page="1" pageScale="1" pageWidth="1200" pageHeight="1920" math="0" shadow="0">
      <root>
        <mxCell id="0" />
        <mxCell id="1" parent="0" />
        <mxCell id="_NvkvRqYbCo7bv9AHijF-1" value="Cluster&lt;br&gt;&lt;br&gt;30 Brokers" style="ellipse;whiteSpace=wrap;html=1;aspect=fixed;" vertex="1" parent="1">
          <mxGeometry x="420" y="459" width="140" height="140" as="geometry" />
        </mxCell>
        <mxCell id="_NvkvRqYbCo7bv9AHijF-3" style="edgeStyle=orthogonalEdgeStyle;rounded=0;orthogonalLoop=1;jettySize=auto;html=1;exitX=0.875;exitY=0.5;exitDx=0;exitDy=0;exitPerimeter=0;entryX=0;entryY=0.5;entryDx=0;entryDy=0;" edge="1" parent="1" source="_NvkvRqYbCo7bv9AHijF-2" target="_NvkvRqYbCo7bv9AHijF-1">
          <mxGeometry relative="1" as="geometry">
            <mxPoint x="420" y="545" as="targetPoint" />
          </mxGeometry>
        </mxCell>
        <mxCell id="_NvkvRqYbCo7bv9AHijF-2" value="servidor HTTP" style="ellipse;shape=cloud;whiteSpace=wrap;html=1;" vertex="1" parent="1">
          <mxGeometry x="180" y="484" width="130" height="90" as="geometry" />
        </mxCell>
        <mxCell id="_NvkvRqYbCo7bv9AHijF-8" style="edgeStyle=orthogonalEdgeStyle;rounded=0;orthogonalLoop=1;jettySize=auto;html=1;entryX=0.07;entryY=0.4;entryDx=0;entryDy=0;entryPerimeter=0;" edge="1" parent="1" source="_NvkvRqYbCo7bv9AHijF-5" target="_NvkvRqYbCo7bv9AHijF-2">
          <mxGeometry relative="1" as="geometry" />
        </mxCell>
        <mxCell id="_NvkvRqYbCo7bv9AHijF-5" value="Usuário" style="shape=umlActor;verticalLabelPosition=bottom;verticalAlign=top;html=1;outlineConnect=0;" vertex="1" parent="1">
          <mxGeometry x="50" y="490" width="30" height="60" as="geometry" />
        </mxCell>
        <mxCell id="_NvkvRqYbCo7bv9AHijF-9" value="&lt;b&gt;email&lt;/b&gt;&lt;br&gt;&lt;br&gt;- nova_compra" style="rounded=1;whiteSpace=wrap;html=1;" vertex="1" parent="1">
          <mxGeometry x="640" y="280" width="160" height="60" as="geometry" />
        </mxCell>
        <mxCell id="_NvkvRqYbCo7bv9AHijF-10" value="&lt;i&gt;nova_compra&lt;/i&gt;" style="text;html=1;align=center;verticalAlign=middle;resizable=0;points=[];autosize=1;strokeColor=none;fillColor=none;" vertex="1" parent="1">
          <mxGeometry x="310" y="510" width="90" height="20" as="geometry" />
        </mxCell>
        <mxCell id="_NvkvRqYbCo7bv9AHijF-11" value="&lt;b&gt;fraude?&lt;/b&gt;&lt;br&gt;&lt;br&gt;- nova_compra" style="rounded=1;whiteSpace=wrap;html=1;" vertex="1" parent="1">
          <mxGeometry x="690" y="360" width="120" height="60" as="geometry" />
        </mxCell>
        <mxCell id="_NvkvRqYbCo7bv9AHijF-12" value="&lt;b&gt;Log&lt;/b&gt;&lt;br&gt;&lt;br&gt;- nova_compra&lt;br&gt;- email_enviado&lt;br&gt;-&amp;nbsp;&lt;span&gt;compra_sem_fraude&lt;br&gt;&lt;/span&gt;" style="rounded=1;whiteSpace=wrap;html=1;" vertex="1" parent="1">
          <mxGeometry x="460" y="680" width="130" height="109" as="geometry" />
        </mxCell>
        <mxCell id="_NvkvRqYbCo7bv9AHijF-13" value="&lt;b&gt;reservar o estoque&lt;br&gt;&lt;/b&gt;&lt;br&gt;- nova_compra" style="rounded=1;whiteSpace=wrap;html=1;" vertex="1" parent="1">
          <mxGeometry x="685" y="530" width="120" height="60" as="geometry" />
        </mxCell>
        <mxCell id="_NvkvRqYbCo7bv9AHijF-14" value="Broker&lt;br&gt;" style="ellipse;whiteSpace=wrap;html=1;aspect=fixed;" vertex="1" parent="1">
          <mxGeometry x="515" y="1520" width="140" height="140" as="geometry" />
        </mxCell>
        <mxCell id="_NvkvRqYbCo7bv9AHijF-15" style="edgeStyle=orthogonalEdgeStyle;rounded=0;orthogonalLoop=1;jettySize=auto;html=1;exitX=0.875;exitY=0.5;exitDx=0;exitDy=0;exitPerimeter=0;entryX=0;entryY=0.5;entryDx=0;entryDy=0;" edge="1" parent="1" source="_NvkvRqYbCo7bv9AHijF-16" target="_NvkvRqYbCo7bv9AHijF-14">
          <mxGeometry relative="1" as="geometry">
            <mxPoint x="500" y="1615" as="targetPoint" />
          </mxGeometry>
        </mxCell>
        <mxCell id="_NvkvRqYbCo7bv9AHijF-16" value="servidor HTTP" style="ellipse;shape=cloud;whiteSpace=wrap;html=1;" vertex="1" parent="1">
          <mxGeometry x="260" y="1554" width="130" height="90" as="geometry" />
        </mxCell>
        <mxCell id="_NvkvRqYbCo7bv9AHijF-17" style="edgeStyle=orthogonalEdgeStyle;rounded=0;orthogonalLoop=1;jettySize=auto;html=1;entryX=0.07;entryY=0.4;entryDx=0;entryDy=0;entryPerimeter=0;" edge="1" parent="1" source="_NvkvRqYbCo7bv9AHijF-18" target="_NvkvRqYbCo7bv9AHijF-16">
          <mxGeometry relative="1" as="geometry" />
        </mxCell>
        <mxCell id="_NvkvRqYbCo7bv9AHijF-18" value="Usáario" style="shape=umlActor;verticalLabelPosition=bottom;verticalAlign=top;html=1;outlineConnect=0;" vertex="1" parent="1">
          <mxGeometry x="130" y="1560" width="30" height="60" as="geometry" />
        </mxCell>
        <mxCell id="_NvkvRqYbCo7bv9AHijF-42" style="edgeStyle=orthogonalEdgeStyle;rounded=0;orthogonalLoop=1;jettySize=auto;html=1;" edge="1" parent="1" source="_NvkvRqYbCo7bv9AHijF-19" target="_NvkvRqYbCo7bv9AHijF-39">
          <mxGeometry relative="1" as="geometry" />
        </mxCell>
        <mxCell id="_NvkvRqYbCo7bv9AHijF-19" value="&lt;b&gt;Valida dados do Cartão&lt;br&gt;&lt;/b&gt;&lt;br&gt;- compra" style="rounded=1;whiteSpace=wrap;html=1;" vertex="1" parent="1">
          <mxGeometry x="455" y="1240" width="160" height="70" as="geometry" />
        </mxCell>
        <mxCell id="_NvkvRqYbCo7bv9AHijF-20" value="compra" style="text;html=1;align=center;verticalAlign=middle;resizable=0;points=[];autosize=1;strokeColor=none;fillColor=none;" vertex="1" parent="1">
          <mxGeometry x="405" y="1570" width="60" height="20" as="geometry" />
        </mxCell>
        <mxCell id="_NvkvRqYbCo7bv9AHijF-46" style="edgeStyle=orthogonalEdgeStyle;rounded=0;orthogonalLoop=1;jettySize=auto;html=1;entryX=0.4;entryY=0;entryDx=0;entryDy=0;entryPerimeter=0;" edge="1" parent="1" source="_NvkvRqYbCo7bv9AHijF-21" target="_NvkvRqYbCo7bv9AHijF-44">
          <mxGeometry relative="1" as="geometry" />
        </mxCell>
        <mxCell id="_NvkvRqYbCo7bv9AHijF-21" value="&lt;b&gt;Verifica Limite&lt;br&gt;&lt;/b&gt;&lt;br&gt;- compra&lt;br&gt;- cartao_check" style="rounded=1;whiteSpace=wrap;html=1;" vertex="1" parent="1">
          <mxGeometry x="750" y="1264" width="140" height="80" as="geometry" />
        </mxCell>
        <mxCell id="_NvkvRqYbCo7bv9AHijF-22" value="&lt;b&gt;Log&lt;/b&gt;&lt;br&gt;&lt;br&gt;- compra&lt;br&gt;- cartao_check&lt;br&gt;- limite_check" style="rounded=1;whiteSpace=wrap;html=1;" vertex="1" parent="1">
          <mxGeometry x="605" y="1680" width="130" height="130" as="geometry" />
        </mxCell>
        <mxCell id="_NvkvRqYbCo7bv9AHijF-50" style="edgeStyle=orthogonalEdgeStyle;rounded=0;orthogonalLoop=1;jettySize=auto;html=1;entryX=0.638;entryY=0;entryDx=0;entryDy=0;entryPerimeter=0;" edge="1" parent="1" source="_NvkvRqYbCo7bv9AHijF-23" target="_NvkvRqYbCo7bv9AHijF-49">
          <mxGeometry relative="1" as="geometry" />
        </mxCell>
        <mxCell id="_NvkvRqYbCo7bv9AHijF-23" value="&lt;b&gt;Fraude?&lt;br&gt;&lt;/b&gt;&lt;br&gt;- compra" style="rounded=1;whiteSpace=wrap;html=1;" vertex="1" parent="1">
          <mxGeometry x="750" y="1390" width="120" height="60" as="geometry" />
        </mxCell>
        <mxCell id="_NvkvRqYbCo7bv9AHijF-24" value="&lt;b&gt;analytics&lt;br&gt;&lt;/b&gt;&lt;br&gt;- nova_compra&lt;br&gt;- email_enviado&lt;br&gt;-&amp;nbsp;&lt;span&gt;compra_sem_fraude&lt;br&gt;&lt;/span&gt;" style="rounded=1;whiteSpace=wrap;html=1;" vertex="1" parent="1">
          <mxGeometry x="640" y="640" width="130" height="90" as="geometry" />
        </mxCell>
        <mxCell id="_NvkvRqYbCo7bv9AHijF-35" style="edgeStyle=orthogonalEdgeStyle;rounded=0;orthogonalLoop=1;jettySize=auto;html=1;entryX=0.429;entryY=-0.021;entryDx=0;entryDy=0;entryPerimeter=0;" edge="1" parent="1" source="_NvkvRqYbCo7bv9AHijF-30" target="_NvkvRqYbCo7bv9AHijF-1">
          <mxGeometry relative="1" as="geometry" />
        </mxCell>
        <mxCell id="_NvkvRqYbCo7bv9AHijF-36" style="edgeStyle=orthogonalEdgeStyle;rounded=0;orthogonalLoop=1;jettySize=auto;html=1;entryX=-0.006;entryY=0.4;entryDx=0;entryDy=0;entryPerimeter=0;" edge="1" parent="1" source="_NvkvRqYbCo7bv9AHijF-30" target="_NvkvRqYbCo7bv9AHijF-9">
          <mxGeometry relative="1" as="geometry" />
        </mxCell>
        <mxCell id="_NvkvRqYbCo7bv9AHijF-30" value="&lt;i&gt;email_enviado&lt;/i&gt;" style="text;html=1;align=center;verticalAlign=middle;resizable=0;points=[];autosize=1;strokeColor=none;fillColor=none;" vertex="1" parent="1">
          <mxGeometry x="448" y="294" width="90" height="20" as="geometry" />
        </mxCell>
        <mxCell id="_NvkvRqYbCo7bv9AHijF-37" style="edgeStyle=orthogonalEdgeStyle;rounded=0;orthogonalLoop=1;jettySize=auto;html=1;entryX=0.829;entryY=0.079;entryDx=0;entryDy=0;entryPerimeter=0;" edge="1" parent="1" source="_NvkvRqYbCo7bv9AHijF-32" target="_NvkvRqYbCo7bv9AHijF-1">
          <mxGeometry relative="1" as="geometry" />
        </mxCell>
        <mxCell id="_NvkvRqYbCo7bv9AHijF-38" style="edgeStyle=orthogonalEdgeStyle;rounded=0;orthogonalLoop=1;jettySize=auto;html=1;" edge="1" parent="1" source="_NvkvRqYbCo7bv9AHijF-32" target="_NvkvRqYbCo7bv9AHijF-11">
          <mxGeometry relative="1" as="geometry" />
        </mxCell>
        <mxCell id="_NvkvRqYbCo7bv9AHijF-32" value="&lt;i&gt;compra_sem_fraude&lt;/i&gt;" style="text;html=1;align=center;verticalAlign=middle;resizable=0;points=[];autosize=1;strokeColor=none;fillColor=none;" vertex="1" parent="1">
          <mxGeometry x="520" y="380" width="130" height="20" as="geometry" />
        </mxCell>
        <mxCell id="_NvkvRqYbCo7bv9AHijF-33" value="&lt;b&gt;efetua compra&lt;br&gt;&lt;/b&gt;&lt;br&gt;- compra_sem_fraude&lt;span style=&quot;color: rgba(0 , 0 , 0 , 0) ; font-family: monospace ; font-size: 0px&quot;&gt;%3CmxGraphModel%3E%3Croot%3E%3CmxCell%20id%3D%220%22%2F%3E%3CmxCell%20id%3D%221%22%20parent%3D%220%22%2F%3E%3CmxCell%20id%3D%222%22%20value%3D%22%26lt%3Bb%26gt%3Breservar%20o%20estoque%26lt%3Bbr%26gt%3B%26lt%3B%2Fb%26gt%3B%26lt%3Bbr%26gt%3B-%20nova_compra%22%20style%3D%22rounded%3D1%3BwhiteSpace%3Dwrap%3Bhtml%3D1%3B%22%20vertex%3D%221%22%20parent%3D%221%22%3E%3CmxGeometry%20x%3D%22650%22%20y%3D%22500%22%20width%3D%22120%22%20height%3D%2260%22%20as%3D%22geometry%22%2F%3E%3C%2FmxCell%3E%3C%2Froot%3E%3C%2FmxGraphModel%3Ec&lt;/span&gt;" style="rounded=1;whiteSpace=wrap;html=1;" vertex="1" parent="1">
          <mxGeometry x="260" y="645" width="150" height="60" as="geometry" />
        </mxCell>
        <mxCell id="_NvkvRqYbCo7bv9AHijF-40" style="edgeStyle=orthogonalEdgeStyle;rounded=0;orthogonalLoop=1;jettySize=auto;html=1;" edge="1" parent="1" source="_NvkvRqYbCo7bv9AHijF-39" target="_NvkvRqYbCo7bv9AHijF-14">
          <mxGeometry relative="1" as="geometry">
            <Array as="points">
              <mxPoint x="535" y="1460" />
              <mxPoint x="535" y="1460" />
            </Array>
          </mxGeometry>
        </mxCell>
        <mxCell id="_NvkvRqYbCo7bv9AHijF-39" value="cartao_check&lt;br&gt;" style="text;html=1;align=center;verticalAlign=middle;resizable=0;points=[];autosize=1;strokeColor=none;fillColor=none;" vertex="1" parent="1">
          <mxGeometry x="490" y="1370" width="90" height="20" as="geometry" />
        </mxCell>
        <mxCell id="_NvkvRqYbCo7bv9AHijF-47" style="edgeStyle=orthogonalEdgeStyle;rounded=0;orthogonalLoop=1;jettySize=auto;html=1;" edge="1" parent="1" source="_NvkvRqYbCo7bv9AHijF-44" target="_NvkvRqYbCo7bv9AHijF-14">
          <mxGeometry relative="1" as="geometry" />
        </mxCell>
        <mxCell id="_NvkvRqYbCo7bv9AHijF-44" value="limite_check&lt;br&gt;" style="text;html=1;align=center;verticalAlign=middle;resizable=0;points=[];autosize=1;strokeColor=none;fillColor=none;" vertex="1" parent="1">
          <mxGeometry x="610" y="1350" width="80" height="20" as="geometry" />
        </mxCell>
        <mxCell id="_NvkvRqYbCo7bv9AHijF-48" value="&lt;b&gt;Subtrai Limite&lt;/b&gt;&lt;br&gt;&lt;br&gt;- compra&lt;br&gt;- cartao_check&lt;br&gt;- limite_check&lt;br&gt;- sem_fraude" style="rounded=1;whiteSpace=wrap;html=1;" vertex="1" parent="1">
          <mxGeometry x="790" y="1630" width="130" height="130" as="geometry" />
        </mxCell>
        <mxCell id="_NvkvRqYbCo7bv9AHijF-51" style="edgeStyle=orthogonalEdgeStyle;rounded=0;orthogonalLoop=1;jettySize=auto;html=1;entryX=0.786;entryY=0.064;entryDx=0;entryDy=0;entryPerimeter=0;" edge="1" parent="1" source="_NvkvRqYbCo7bv9AHijF-49" target="_NvkvRqYbCo7bv9AHijF-14">
          <mxGeometry relative="1" as="geometry" />
        </mxCell>
        <mxCell id="_NvkvRqYbCo7bv9AHijF-49" value="sem_fraude&lt;br&gt;" style="text;html=1;align=center;verticalAlign=middle;resizable=0;points=[];autosize=1;strokeColor=none;fillColor=none;" vertex="1" parent="1">
          <mxGeometry x="630" y="1480" width="80" height="20" as="geometry" />
        </mxCell>
        <mxCell id="_NvkvRqYbCo7bv9AHijF-52" value="&lt;b&gt;Email&lt;/b&gt;&lt;br&gt;&lt;br&gt;- compra" style="rounded=1;whiteSpace=wrap;html=1;" vertex="1" parent="1">
          <mxGeometry x="790" y="1490" width="120" height="60" as="geometry" />
        </mxCell>
      </root>
    </mxGraphModel>
  </diagram>
</mxfile>
